<?xml version="1.0" standalone="no"?>
<!DOCTYPE svg PUBLIC "-//W3C//DTD SVG 20010904//EN"
 "http://www.w3.org/TR/2001/REC-SVG-20010904/DTD/svg10.dtd">
<svg version="1.0" xmlns="http://www.w3.org/2000/svg"
 width="2251.000000pt" height="2251.000000pt" viewBox="0 0 2251.000000 2251.000000"
 preserveAspectRatio="xMidYMid meet">

<g transform="translate(0.000000,2251.000000) scale(0.100000,-0.100000)"
fill="#000000" stroke="none">
<path d="M13292 16286 c-2113 -1212 -3845 -2205 -3847 -2208 -3 -2 405 -235
906 -517 l910 -512 47 27 c26 15 953 562 2060 1216 1107 653 2015 1188 2017
1188 3 0 4 -388 3 -861 l-3 -862 -2470 -1467 -2470 -1466 -3 -1667 -2 -1667
870 0 870 0 2 1196 3 1195 2478 1406 2477 1406 0 2899 c0 1594 -1 2898 -2
2898 -2 0 -1732 -992 -3846 -2204z"/>
<path d="M5460 17423 l0 -1009 1643 -959 c903 -527 1644 -959 1647 -961 9 -4
1769 1020 1771 1031 1 8 -4998 2882 -5048 2902 -10 4 -13 -201 -13 -1004z"/>
<path d="M5460 11496 l0 -4006 885 0 885 0 0 3509 0 3508 -842 474 c-464 260
-862 484 -885 497 l-43 24 0 -4006z"/>
<path d="M16245 11312 l-890 -498 -3 -1662 -2 -1662 895 0 895 0 0 2160 c0
1188 -1 2160 -3 2160 -2 0 -403 -224 -892 -498z"/>
<path d="M17075 5749 c-211 -27 -397 -115 -550 -260 -341 -324 -355 -826 -31
-1166 39 -42 98 -95 131 -118 397 -282 968 -234 1304 108 l53 55 -142 95 -143
96 -61 -55 c-67 -61 -187 -124 -276 -145 -78 -19 -232 -16 -310 5 -193 52
-356 201 -411 375 -28 89 -28 213 0 301 41 132 161 265 297 330 84 41 173 60
279 60 107 0 194 -19 273 -59 69 -35 178 -116 193 -142 9 -18 20 -12 146 73
74 51 138 99 141 106 2 8 -15 34 -39 59 -208 213 -538 322 -854 282z"/>
<path d="M1740 4871 l0 -851 160 0 160 0 0 284 0 284 263 4 c215 4 272 8 317
23 101 32 173 75 246 149 302 303 173 794 -246 932 -49 16 -103 18 -477 22
l-423 3 0 -850z m833 515 c139 -50 202 -215 132 -344 -31 -57 -78 -98 -134
-118 -25 -9 -107 -13 -273 -14 l-238 0 0 245 0 245 238 0 c172 -1 247 -5 275
-14z"/>
<path d="M4390 4871 l0 -851 160 0 160 0 0 285 0 285 209 0 208 0 119 -285
119 -285 168 0 c92 0 167 3 167 7 0 4 -58 148 -130 319 -71 172 -130 316 -130
321 0 5 22 28 50 50 137 112 210 264 210 439 0 248 -160 459 -410 540 -48 16
-105 18 -477 22 l-423 3 0 -850z m861 501 c175 -91 181 -329 12 -429 l-48 -28
-252 -3 -253 -3 0 245 0 246 244 0 244 0 53 -28z"/>
<path d="M8075 5710 c-161 -19 -337 -83 -475 -175 -87 -58 -216 -193 -268
-281 -177 -300 -132 -656 117 -917 158 -165 348 -264 582 -302 566 -92 1102
258 1159 757 48 415 -266 795 -740 898 -105 23 -269 31 -375 20z m304 -330
c119 -29 212 -80 297 -165 278 -276 161 -693 -236 -840 -63 -24 -95 -29 -201
-33 -107 -4 -137 -1 -204 17 -295 81 -480 329 -437 582 23 131 91 239 207 326
158 120 371 161 574 113z"/>
<path d="M11707 5713 c-4 -3 -7 -257 -7 -563 0 -633 2 -613 -81 -704 -32 -36
-68 -62 -110 -80 -54 -25 -71 -28 -142 -24 -130 5 -224 65 -284 180 -24 48
-28 66 -31 176 l-4 122 -161 0 -160 0 6 -132 c11 -226 58 -341 196 -478 97
-96 168 -137 297 -170 283 -73 592 69 722 331 71 143 72 152 72 787 l0 562
-153 0 c-85 0 -157 -3 -160 -7z"/>
<path d="M13570 4870 l0 -850 615 0 615 0 0 160 0 160 -460 0 -460 0 0 185 0
185 460 0 460 0 0 160 0 160 -460 0 -460 0 0 185 0 185 460 0 460 0 0 160 0
160 -615 0 -615 0 0 -850z"/>
<path d="M19437 5713 c-4 -3 -7 -75 -7 -160 l0 -153 255 0 255 0 0 -690 0
-690 160 0 160 0 0 690 0 690 250 0 250 0 0 160 0 160 -658 0 c-362 0 -662 -3
-665 -7z"/>
</g>
</svg>
